<svg xmlns="http://www.w3.org/2000/svg" xmlns:xlink="http://www.w3.org/1999/xlink" width="274px" height="150px" viewBox="0 0 86 44" version="1.1">
 <!-- Generator: Sketch 48.2 (47327) - http://www.bohemiancoding.com/sketch -->
 <title>
  Logo / Color
 </title>
 <desc>
  Created with Sketch.
 </desc>
 <defs>
  <polygon id="path-1" points="0 44 85.785 44 85.785 0.402458716 0 0.402458716">
  </polygon>
 </defs>
 <g id="Symbols" stroke="none" stroke-width="1" fill="none" fill-rule="evenodd">
  <g id="Logo-/-Color">
   <g id="Logo/AIG/White">
    <path d="M20.4902107,10 L9,34 L13.014387,34 L15.7652947,28.1698225 L26.3316141,28.1698225 L28.9229073,34 L33,34 L21.9157477,10 L20.4902107,10 Z M21.1514709,16.6060566 L24.8140545,24.7662466 L17.3150215,24.7662466 L21.1514709,16.6060566 Z" id="Fill-1" fill="#001871">
    </path>
    <polygon id="Fill-2" fill="#001871" points="40 34 36 34 36 10 40 10 40 32.5499769">
    </polygon>
    <g id="Group-8">
     <path d="M59.234871,21.6992257 L69.3020953,21.6992257 L69.3020953,22.5081798 C69.3020953,24.3460881 69.0878991,25.9740881 68.655086,27.3889505 C68.2355346,28.7000697 67.5250299,29.9248037 66.5259832,31.0675927 C64.2630579,33.625244 61.3864785,34.9016477 57.8946374,34.9016477 C54.4847776,34.9016477 51.5660019,33.6664183 49.1358991,31.1939413 C46.7053944,28.7109688 45.4905439,25.7302716 45.4905439,22.2546752 C45.4905439,18.7048037 46.7278991,15.6926202 49.1993944,13.2201431 C51.6720953,10.7359596 54.6788804,9.49548257 58.2241701,9.49548257 C60.1302355,9.49548257 61.9068991,9.88421651 63.5589832,10.6624917 C65.1367215,11.440767 66.6879364,12.7058679 68.2134318,14.4565835 L65.5940486,16.9758862 C63.5959551,14.3023817 61.1594224,12.9662349 58.288871,12.9662349 C55.7108804,12.9662349 53.5480206,13.859556 51.8027028,15.6453908 C50.0577869,17.3997394 49.1833196,19.5965101 49.1833196,22.2365101 C49.1833196,24.9645101 50.1570486,27.2101248 52.1033009,28.9741615 C53.9237682,30.6130606 55.8957402,31.4317028 58.0204224,31.4317028 C59.8292355,31.4317028 61.4539925,30.8201431 62.8967028,29.5974275 C64.3370019,28.3650239 65.1415439,26.8884 65.3107308,25.1707853 L59.234871,25.1707853 L59.234871,21.6992257 Z" id="Fill-3" fill="#001871">
     </path>
     <mask id="mask-2" fill="white">
      <use href="#path-1">
      </use>
     </mask>
     <g id="Clip-6">
     </g>
     <path d="M0,44 L80.2552804,44 L80.2552804,0.402458716 L0,0.402458716 L0,44 Z M3.33792523,40.6382385 L76.917757,40.6382385 L76.917757,3.76341284 L3.33792523,3.76341284 L3.33792523,40.6382385 Z" id="Fill-5" fill="#001871" mask="url(#mask-2)">
     </path>
     <path d="M83.7273093,42.1200294 L84.0500103,42.1200294 C84.3228794,42.1200294 84.5728421,42.1075156 84.5728421,41.7942679 C84.5728421,41.5270385 84.342571,41.4862679 84.1352065,41.4862679 L83.7273093,41.4862679 L83.7273093,42.1200294 Z M83.4206832,41.2339743 L84.1870477,41.2339743 C84.6572346,41.2339743 84.8818794,41.4208734 84.8818794,41.803956 C84.8818794,42.1648367 84.6552252,42.3137908 84.3590477,42.3476991 L84.9272907,43.2276991 L84.5973561,43.2276991 L84.0532252,42.3715156 L83.7273093,42.3715156 L83.7273093,43.2276991 L83.4206832,43.2276991 L83.4206832,41.2339743 Z M84.0829636,43.6923229 C84.867814,43.6923229 85.4770477,43.0589651 85.4770477,42.2241761 C85.4770477,41.4095706 84.867814,40.7790385 84.0829636,40.7790385 C83.2864589,40.7790385 82.6784308,41.4095706 82.6784308,42.2241761 C82.6784308,43.0589651 83.2864589,43.6923229 84.0829636,43.6923229 Z M84.0829636,40.526745 C85.0084682,40.526745 85.7848794,41.2630385 85.7848794,42.2241761 C85.7848794,43.2079193 85.0084682,43.9397725 84.0829636,43.9397725 C83.151029,43.9397725 82.3701972,43.2079193 82.3701972,42.2241761 C82.3701972,41.2630385 83.151029,40.526745 84.0829636,40.526745 Z" id="Fill-7" fill="#001871" mask="url(#mask-2)">
     </path>
    </g>
   </g>
  </g>
 </g>
</svg>