<svg xmlns="http://www.w3.org/2000/svg" xmlns:xlink="http://www.w3.org/1999/xlink" version="1.1" id="Layer_1" x="0px" y="0px" viewBox="0 0 245.1 48" style="enable-background:new 0 0 245.1 48;" xml:space="preserve">
	<style type="text/css">
		.st0-logo{fill:none;}
		.st1-logo{fill:#16243A;}
		.st2-logo{fill:#A14EFF;}
		.st3-logo{fill:#00CBFF;}
		.st4-logo{fill:#84F22E;}
		.st5-logo{fill:#175FFF;}
	</style>
	<title>at_logo_web</title>
	<path class="st0-logo" d="M187.9,20.2H187v1.8h0.8c0.7,0,1.1-0.4,1.1-0.9C188.9,20.5,188.6,20.2,187.9,20.2z"/>
	<polygon class="st0-logo" points="193.5,20.5 192.8,22.8 194.3,22.8 "/>
	<path class="st0-logo" d="M42.9,20.1c-0.2-0.8-0.4-1.6-0.9-2.3c-0.4,0.7-0.7,1.3-0.8,2.1c-0.3,1.4-0.6,2.9-0.6,4.4v0.1c0,0.2,0,0.3,0,0.5  c0.1,2,0.6,4,1.4,5.8c0.1-0.2,0.2-0.5,0.3-0.7c0.7-1.7,1.1-3.4,1.1-5.3c0-0.1,0-0.1,0-0.1C43.5,23.1,43.3,21.6,42.9,20.1z"/>
	<path class="st0-logo" d="M157.7,20.8c0-0.4-0.3-0.7-0.9-0.7h-0.8v1.4h0.8C157.3,21.5,157.7,21.3,157.7,20.8z"/>
	<path class="st0-logo" d="M137.6,21.8c-1.2-0.1-2.3,0.8-2.6,1.9h5C139.9,22.5,138.8,21.7,137.6,21.8z"/>
	<path class="st0-logo" d="M156.9,22.4H156v1.5h0.9c0.6,0,1.1-0.2,1.1-0.7C158,22.7,157.6,22.4,156.9,22.4z"/>
	<path class="st0-logo" d="M64.4,21.8c-1.6,0-2.9,1.2-2.9,3.2c0,1.8,1.2,3.1,2.9,3.1c1.6,0,2.9-1.3,2.9-2.9c0-0.1,0-0.1,0-0.2  C67.3,23.2,66.1,21.8,64.4,21.8z"/>
	<polygon class="st0-logo" points="225.2,20.5 224.4,22.8 226,22.8 "/>
	<path class="st0-logo" d="M211.2,20.2h-0.8v1.8h0.8c0.7,0,1.1-0.4,1.1-0.9C212.2,20.5,211.8,20.2,211.2,20.2z"/>
	<path class="st1-logo" d="M67.2,20.5L67.2,20.5c-0.9-1-2.1-1.5-3.4-1.4c-3.1,0-5.3,2.4-5.3,5.9s2.3,5.8,5.4,5.8c1.3,0.1,2.6-0.5,3.4-1.6  h0.1v1.4h2.9V19.3h-3L67.2,20.5z M64.4,28.1c-1.7,0-2.9-1.3-2.9-3.1c0-1.9,1.3-3.2,2.9-3.2c1.7,0,2.9,1.4,2.9,3.2  c0.1,1.6-1.1,3-2.7,3.1C64.5,28.1,64.5,28.1,64.4,28.1z"/>
	<path class="st1-logo" d="M79.4,19.1c-1.4,0-2.7,0.6-3.6,1.7h-0.1v-1.5h-3.1v11.3h3.1v-5.7c0-2,1.1-3.1,2.6-3.1c1.4,0,2.2,0.7,2.2,2.8v6  h3.1v-6.7C83.6,20.4,81.9,19.1,79.4,19.1z"/>
	<polygon class="st1-logo" points="90.4,26.3 90.3,26.3 87.5,19.3 84.4,19.3 88.9,29.9 86.9,35.2 90,35.2 96.1,19.3 92.9,19.3 "/>
	<path class="st1-logo" d="M102.4,28c-0.7,0-1-0.4-1-1.4v-4.8h3.1v-2.5h-3.1v-4.1l-3,0.3v3.7H97v2.5h1.3V27c0,2.6,1.3,3.8,3.2,3.8  c1.1,0.1,2.1-0.2,3-0.7l-0.8-2.4C103.4,27.9,102.9,28,102.4,28z"/>
	<path class="st1-logo" d="M107.9,13.9c-1,0-1.8,0.9-1.8,1.9c0,1,0.9,1.8,1.9,1.8c1,0,1.8-0.8,1.8-1.9C109.8,14.8,109,13.9,107.9,13.9  L107.9,13.9z"/>
	<rect x="106.4" y="19.3" class="st1-logo" width="3.1" height="11.3"/>
	<path class="st1-logo" d="M126,19.1c-1.5-0.1-3,0.6-3.9,1.8H122c-0.7-1.2-2-1.9-3.4-1.8c-1.3,0-2.6,0.6-3.4,1.7l0,0v-1.5h-3.1v11.3h3  v-5.7c0-2.1,1.1-3.2,2.4-3.2s2,1.1,2,2.9v5.8h3.1v-5.6c0-2.1,1.1-3.2,2.3-3.2c1.4,0,2,1.1,2,2.9v5.8h3.1V24  C130,20.5,128.5,19.1,126,19.1z"/>
	<path class="st1-logo" d="M137.5,19.1c-3.2,0-5.6,2.4-5.6,5.8c0,3.6,2.5,5.9,5.8,5.9c1.9,0.1,3.7-0.7,4.9-2.2l-2-1.8  c-0.7,0.8-1.7,1.3-2.7,1.3c-1.4,0.1-2.6-0.8-2.9-2.2h8c0.1-0.4,0.1-0.7,0.1-1.1C143.1,21.5,140.9,19.1,137.5,19.1z M135,23.7  c0.3-1.2,1.3-2,2.6-1.9c1.2-0.1,2.2,0.8,2.4,1.9H135z"/>
	<path class="st1-logo" d="M158,21.9L158,21.9c0.6-0.2,0.9-0.7,0.9-1.3c0-0.9-0.7-1.4-1.9-1.4h-2.1V25h2.4c1.3,0,1.9-0.7,1.9-1.6  C159.2,22.6,158.7,22,158,21.9z M156,20.2h0.8c0.7,0,0.9,0.3,0.9,0.7c0,0.4-0.4,0.7-0.9,0.7H156V20.2z M156.9,23.9h-0.9v-1.5h0.9  c0.7,0,1.1,0.3,1.1,0.8S157.5,23.9,156.9,23.9z"/>
	<polygon class="st1-logo" points="162,21.3 161.9,21.3 160.8,19.1 159.4,19.1 161.4,22.4 161.4,24.9 162.6,24.9 162.6,22.4 164.5,19.1   163.2,19.1 "/>
	<rect x="167.4" y="19.1" class="st1-logo" width="1.2" height="5.8"/>
	<polygon class="st1-logo" points="173.7,23 173.6,23 171.1,19.1 169.9,19.1 169.9,24.9 171.1,24.9 171.1,21.1 171.1,21.1 173.6,24.9   174.8,24.9 174.8,19.1 173.7,19.1 "/>
	<polygon class="st1-logo" points="175.7,20.2 177.3,20.2 177.3,24.9 178.5,24.9 178.5,20.2 180.1,20.2 180.1,19.1 175.7,19.1 "/>
	<polygon class="st1-logo" points="182.1,22.5 184.2,22.5 184.2,21.5 182.1,21.5 182.1,20.2 184.7,20.2 184.7,19.1 181,19.1 181,24.9   184.9,24.9 184.9,23.9 182.1,23.9 "/>
	<path class="st1-logo" d="M190.1,21c0-1.1-0.6-1.9-2-1.9h-2.2v5.8h1.2v-2h0.7l1.3,2h1.4l-1.4-2.1C189.7,22.6,190.2,21.9,190.1,21z   M187.8,21.9H187v-1.8h0.8c0.7,0,1.1,0.3,1.1,0.9C188.9,21.6,188.5,21.9,187.8,21.9z"/>
	<path class="st1-logo" d="M193,19.1l-2.2,5.8h1.2l0.4-1.2h2.2l0.4,1.2h1.2l-2.2-5.8H193z M192.8,22.8l0.8-2.3l0,0l0.8,2.3H192.8z"/>
	<polygon class="st1-logo" points="200,22.4 200,22.4 198.2,19.1 197,19.1 197,24.9 198.1,24.9 198.1,21.3 198.2,21.3 199.6,23.8   200.4,23.8 201.8,21.3 201.8,21.3 201.8,24.9 202.9,24.9 202.9,19.1 201.8,19.1 "/>
	<polygon class="st1-logo" points="205.3,22.5 207.4,22.5 207.4,21.5 205.3,21.5 205.3,20.2 207.9,20.2 207.9,19.1 204.2,19.1 204.2,24.9   208.1,24.9 208.1,23.9 205.3,23.9 "/>
	<path class="st1-logo" d="M213.4,21c0-1.1-0.6-1.9-2-1.9h-2.2v5.8h1.2v-2h0.7l1.3,2h1.4l-1.4-2.1C212.9,22.6,213.4,21.9,213.4,21z   M211.1,21.9h-0.8v-1.8h0.8c0.7,0,1.1,0.3,1.1,0.9C212.2,21.6,211.8,21.9,211.1,21.9z"/>
	<rect x="214.6" y="19.1" class="st1-logo" width="1.2" height="5.8"/>
	<path class="st1-logo" d="M219.8,20.2c0.6,0,1.1,0.3,1.4,0.7l0.8-0.7c-0.6-0.7-1.4-1.1-2.3-1.1c-1.6-0.1-2.9,1.1-3,2.7c0,0.1,0,0.2,0,0.3  c-0.1,1.6,1.1,2.9,2.7,2.9c0.1,0,0.2,0,0.3,0c0.9,0,1.8-0.4,2.3-1.1l-0.8-0.7c-0.3,0.4-0.9,0.7-1.5,0.8c-0.9,0-1.8-0.8-1.8-1.7  c0-0.1,0-0.1,0-0.2c-0.1-0.9,0.6-1.8,1.6-1.9C219.7,20.2,219.7,20.2,219.8,20.2z"/>
	<path class="st1-logo" d="M224.7,19.1l-2.2,5.8h1.2l0.4-1.2h2.2l0.4,1.2h1.2l-2.2-5.8H224.7z M224.4,22.8l0.8-2.3l0,0l0.8,2.3H224.4z"/>
	<polygon class="st1-logo" points="232.5,19.1 232.5,23 232.5,23 229.9,19.1 228.7,19.1 228.7,24.9 229.9,24.9 229.9,21.1 229.9,21.1   232.5,24.9 233.7,24.9 233.7,19.1 "/>
	<path class="st2-logo" d="M14.2,23c1.1,0,1.9,0.8,1.9,1.9c0-7.6,6.1-13.7,13.7-13.7c2.1,0,4.1,0.5,6,1.4c0.3,0.1,0.6,0.2,0.8,0.2  c1.1,0,1.9-0.9,1.9-1.9c0-0.7-0.4-1.3-1.1-1.7C28.8,5,18.3,8.5,14.1,17.3c-1.2,2.4-1.8,5-1.8,7.7C12.3,23.9,13.2,23,14.2,23z"/>
	<path class="st3-logo" d="M27.8,40.5c0-1.1,0.8-1.9,1.9-1.9c-3.6,0-7.1-1.4-9.6-4c-2.6-2.6-3.9-6.1-3.9-9.7c-0.1-1.1-0.9-1.9-2-1.8  c-1,0.1-1.8,0.8-1.8,1.8l0,0c0,2.3,0.4,4.7,1.3,6.8c0.8,2.1,2.1,3.9,3.7,5.6c3.2,3.3,7.7,5.2,12.3,5.2  C28.6,42.5,27.8,41.6,27.8,40.5z"/>
	<path class="st4-logo" d="M44.2,34.6c0.7-0.9,1.2-2,1.7-3.1c0.9-2.2,1.4-4.5,1.4-6.8c0-0.1,0-0.1,0-0.1v0.1c0,1.1-0.8,1.9-1.8,1.9  s-1.9-0.8-1.9-1.8c0,1.8-0.4,3.6-1.1,5.3c-0.1,0.2-0.2,0.5-0.3,0.7c-0.7,1.3-1.5,2.5-2.5,3.6l-0.2,0.2c-1.3,1.3-2.8,2.3-4.4,3  c-1.7,0.7-3.5,1.1-5.3,1.1c-1.1,0.1-1.9,0.9-1.8,2c0.1,1,0.8,1.8,1.8,1.8c2.3,0,4.7-0.5,6.8-1.4c1.9-0.8,3.7-2,5.2-3.5l0.4-0.4  C42.9,36.3,43.6,35.5,44.2,34.6z"/>
	<path class="st2-logo" d="M42.1,13.8L42.1,13.8L42.1,13.8z"/>
	<path class="st2-logo" d="M42.1,13.8L42.1,13.8L42.1,13.8z"/>
	<path class="st5-logo" d="M40.7,24.9c0-0.2,0-0.3,0-0.5v-0.1c0-1.5,0.2-2.9,0.6-4.4c0.2-0.7,0.4-1.4,0.8-2.1c0.4,0.7,0.7,1.4,0.9,2.3  c0.3,1.5,0.6,3,0.6,4.6c0,0.1,0,0.1,0,0.1c0,1.1,0.9,1.9,1.9,1.8s1.9-0.9,1.8-1.9v-0.1c0-2.1-0.3-4.2-0.9-6.2  c-0.3-1-0.7-1.9-1.3-2.8c-0.7-1-1.8-1.7-3-1.7l0,0c-1.2,0-2.3,0.6-2.9,1.6c-0.6,0.8-1.1,1.8-1.3,2.7c-0.6,2-0.9,4.1-0.9,6.2l0,0v0.1  c0,0.2,0,0.4,0,0.7c0.2,3.2,1.1,6.4,2.7,9.2c1-1.1,1.8-2.3,2.5-3.6C41.2,28.9,40.8,26.9,40.7,24.9z"/>
	<path class="st5-logo" d="M49.2,38.6c-1.5-0.4-3.4-1.9-5-4.1c-0.6,0.9-1.3,1.8-2.1,2.6l-0.4,0.4c0.8,0.9,1.7,1.8,2.6,2.7  c1.2,1,2.5,1.7,3.9,2.1c0.2,0.1,0.3,0.1,0.5,0.1c1.1,0,1.9-0.9,1.9-1.9C50.7,39.6,50.1,38.8,49.2,38.6L49.2,38.6z"/>
	<rect x="0.7" y="-4.2" class="st0-logo" width="244.5" height="58"/>
</svg>