<?xml version="1.0" encoding="utf-8"?>
<!-- Generator: Adobe Illustrator 23.0.2, SVG Export Plug-In . SVG Version: 6.00 Build 0)  -->
<svg version="1.1" id="Layer_1" xmlns="http://www.w3.org/2000/svg" xmlns:xlink="http://www.w3.org/1999/xlink" x="0px" y="0px"
	 viewBox="0 0 284.2 101.2" style="enable-background:new 0 0 284.2 101.2;" xml:space="preserve">
<style type="text/css">
	.st0{fill-rule:evenodd;clip-rule:evenodd;fill:#004489;}
	.st1{fill-rule:evenodd;clip-rule:evenodd;fill:#008ACE;}
	.st2{fill:#008ACE;}
	.st3{fill-rule:evenodd;clip-rule:evenodd;fill:#FFFFFF;}
</style>
<g id="Group_6" transform="translate(-868.684 -62.003)">
	<g id="Group_3" transform="translate(976.574 82.203)">
		<g id="Group_1" transform="translate(0 0)">
			<path id="Path_1" class="st0" d="M26.2,43.5c-1.3,0.8-3,0.9-4.4,0.4c-1.9-0.5-2.3-4.2-2.3-4.2s-2.4,3.2-5.7,3.9
				C4.7,46.3-2.5,40.2,0.8,31C2.2,27,7,25.4,11,24.6s6.8-0.2,8-2.5c1.9-4.2-3.7-5.2-6.8-4.4C8.1,19,4.7,24.3,2,21.1
				c-3.2-4,4.9-9.5,11.7-9.9C19.1,11,27,11.8,27,21.6c0,8.5,0.2,9.5,0.2,15.8C27.2,42,27.3,42.7,26.2,43.5z M8.4,33.6
				c-0.6,5.1,7.7,5.3,10,1.4c1.2-2.2,1.5-4.7,1-7.1C16.2,30.3,8.9,29.1,8.4,33.6L8.4,33.6z"/>
			<path id="Path_2" class="st0" d="M85.7,43.5c-1.3,0.8-3,0.9-4.4,0.4c-1.9-0.5-2.3-4.2-2.3-4.2s-2.4,3.2-5.7,3.9
				c-9.1,2.7-16.2-3.4-13-12.7c1.4-3.9,6.2-5.6,10.2-6.3s6.8-0.2,8-2.5c1.9-4.2-3.7-5.2-6.8-4.4c-4.1,1.1-7.6,6.5-10.3,3.3
				c-3.2-4,4.9-9.5,11.7-9.9c5.5-0.3,13.4,0.5,13.4,10.4c0,8.5,0.2,9.5,0.2,15.8C86.7,42,86.8,42.7,85.7,43.5z M67.9,33.6
				c-0.6,5.1,7.7,5.3,10,1.4c1.2-2.2,1.5-4.7,1-7.1C75.6,30.3,68.3,29.1,67.9,33.6L67.9,33.6z"/>
			<path id="Path_3" class="st0" d="M57.1,40.3c0,2.2-1.8,3.9-3.9,3.9c0,0,0,0,0,0l0,0c-2.2,0-3.9-1.8-3.9-3.9c0,0,0,0,0,0V3.9
				C49.2,1.8,51,0,53.2,0c0,0,0,0,0,0l0,0c2.2,0,3.9,1.8,3.9,3.9c0,0,0,0,0,0V40.3z"/>
			<path id="Path_4" class="st0" d="M44.3,11.2h-2.6V3.9c0-2.2-1.8-3.9-3.9-3.9c-2.2,0-3.9,1.8-3.9,3.9l0,0v7.3h-2.6
				c-1.6,0-2.8,1.3-2.8,2.8c0,1.6,1.3,2.8,2.8,2.8h2.6v23.5c0,2.2,1.8,3.9,3.9,3.9c2.2,0,3.9-1.8,3.9-3.9V16.9h2.6
				c1.6,0,2.8-1.3,2.8-2.8C47.1,12.5,45.8,11.2,44.3,11.2L44.3,11.2z"/>
			<path id="Path_5" class="st0" d="M133.7,11.2h-2.6V3.9c0-2.2-1.8-3.9-4-3.9c-2.2,0-3.9,1.8-3.9,3.9v7.3h-2.6
				c-1.6,0-2.8,1.3-2.8,2.8c0,1.6,1.3,2.8,2.8,2.8h2.6v23.5c0,2.2,1.8,3.9,4,3.9c2.2,0,3.9-1.8,3.9-3.9V16.9h2.6
				c1.6,0,2.8-1.3,2.8-2.8C136.5,12.5,135.3,11.2,133.7,11.2L133.7,11.2z"/>
			<path id="Path_6" class="st0" d="M146.7,40.2c0,2.2-1.8,4-4,4l0,0c-2.2,0-4-1.8-4-4V15c0-2.2,1.8-4,4-4l0,0c2.2,0,4,1.8,4,4V40.2
				z"/>
			<path id="Path_7" class="st0" d="M146.7,4.2c0,2.2-1.8,4-4,4c0,0,0,0,0,0l0,0c-2.2,0-4-1.8-4-4V4c0-2.2,1.8-4,4-4c0,0,0,0,0,0
				l0,0c2.2,0,4,1.8,4,4L146.7,4.2z"/>
			<path id="Path_8" class="st0" d="M107.5,11.3c-8.1,0-10.5,5.1-10.5,5.1V15c0-2.2-1.8-4-4-4c-2.2,0-4,1.8-4,4c0,0,0,0,0,0v25.2
				c0,2.2,1.8,4,4,4c2.2,0,4-1.8,4-4V23.9c0-3.1,2.5-5.6,5.6-5.6c0.1,0,0.3,0,0.4,0c6.3,0,5.8,5.2,5.8,5.2v16.7c0,2.2,1.8,4,4,4
				c2.2,0,4-1.8,4-4V21.6C116.9,18.4,115.6,11.3,107.5,11.3z"/>
			<path id="Path_9" class="st0" d="M168.6,34.3c-1,1.7-2.7,2.7-4.6,2.9c-4.7,0-6.5-4.3-6.5-9.6s2.1-9.6,6.5-9.6
				c1.7,0.1,3.3,1,4.3,2.4c0,0,2.9,4.6,6.3,2.2s0.1-6.3,0.1-6.3C172,13,168,11,163.7,11c-9.3,0-15,7.4-15,16.6s5.1,16.6,15,16.6
				c4.2,0,8.2-2,10.9-5.2c2.5-2.9,2-5.5-0.4-7C171.4,30.3,168.6,34.3,168.6,34.3z"/>
		</g>
		<g id="Group_2" transform="translate(44.071 45.698)">
			<path id="Path_10" class="st1" d="M53.9,14.9c-0.5,0.3-1,0.3-1.5,0.1c-0.6-0.2-0.8-1.4-0.8-1.4c-0.5,0.6-1.2,1.1-1.9,1.3
				c-3.1,0.9-5.5-1.2-4.4-4.3c0.5-1.3,2.1-1.9,3.5-2.2s2.3-0.1,2.7-0.8c0.7-1.4-1.3-1.8-2.3-1.5c-1.4,0.4-2.6,2.2-3.5,1.1
				c-1.1-1.4,1.7-3.3,4-3.4c1.9-0.1,4.6,0.2,4.6,3.5c0,2.9,0.1,3.3,0.1,5.4C54.3,14.3,54.3,14.6,53.9,14.9z M47.8,11.5
				c-0.2,1.8,2.6,1.8,3.4,0.5c0.4-0.7,0.5-1.6,0.3-2.4C50.5,10.4,48,10,47.8,11.5L47.8,11.5z"/>
			<path id="Path_11" class="st1" d="M2.7,13.7c0,0.8-0.6,1.4-1.4,1.4l0,0c-0.8,0-1.4-0.6-1.4-1.4v0V5.1c0-0.8,0.6-1.4,1.4-1.4l0,0
				l0,0c0.8,0,1.4,0.6,1.4,1.4V13.7z"/>
			<path id="Path_12" class="st1" d="M2.7,1.4c0,0.8-0.6,1.4-1.4,1.4l0,0C0.6,2.8,0,2.2,0,1.4V1.4C0,0.6,0.6,0,1.4,0c0,0,0,0,0,0
				l0,0C2.1,0,2.7,0.6,2.7,1.4L2.7,1.4z"/>
			<path id="Path_13" class="st1" d="M62.7,3.9c-2.8,0-3.6,1.8-3.6,1.8V5.1c0-0.8-0.7-1.4-1.4-1.3c-0.7,0-1.3,0.6-1.3,1.3v8.6
				c0,0.8,0.7,1.4,1.4,1.3c0.7,0,1.3-0.6,1.3-1.3V8.2c0-1.1,0.9-1.9,1.9-1.9c0,0,0.1,0,0.1,0c2.2,0,2,1.8,2,1.8v5.7
				c0,0.8,0.6,1.4,1.4,1.4c0.8,0,1.4-0.6,1.4-1.4V7.4C65.8,6.3,65.4,3.9,62.7,3.9z"/>
			<path id="Path_14" class="st1" d="M29.6,15c2.8,0,3.6-1.8,3.6-1.8v0.5c0,0.8,0.6,1.4,1.4,1.4s1.4-0.6,1.4-1.4V5.1
				c0-0.8-0.6-1.4-1.4-1.4s-1.4,0.6-1.4,1.4l0,0v5.6c0,1.1-0.9,1.9-1.9,1.9c0,0-0.1,0-0.1,0c-2.2,0-2-1.8-2-1.8V5.1
				c0-0.8-0.6-1.4-1.4-1.4s-1.4,0.6-1.4,1.4l0,0v6.4C26.4,12.6,26.8,15,29.6,15z"/>
			<path id="Path_15" class="st1" d="M11.5,3.9c-2.8,0-3.6,1.8-3.6,1.8V5.1c0-0.8-0.7-1.4-1.4-1.3c-0.7,0-1.3,0.6-1.3,1.3v8.6
				c0,0.8,0.7,1.4,1.4,1.3c0.7,0,1.3-0.6,1.3-1.3V8.2c0-1.1,0.9-1.9,1.9-1.9c0,0,0.1,0,0.1,0c2.2,0,2,1.8,2,1.8v5.7
				c0,0.8,0.7,1.4,1.4,1.3c0.7,0,1.3-0.6,1.3-1.3V7.4C14.7,6.3,14.3,3.9,11.5,3.9z"/>
			<path id="Path_16" class="st1" d="M74.3,11.7c-0.3,0.6-0.9,0.9-1.6,1c-1.6,0-2.2-1.5-2.2-3.3s0.7-3.3,2.2-3.3
				c0.6,0,1.1,0.3,1.5,0.8c0,0,1,1.6,2.2,0.8s0-2.2,0-2.2c-0.9-1.1-2.3-1.8-3.7-1.8c-3.2,0-5.1,2.5-5.1,5.7s1.8,5.7,5.1,5.7
				c1.4,0,2.8-0.7,3.7-1.8c0.8-1,0.7-1.9-0.2-2.4C75.3,10.3,74.3,11.7,74.3,11.7z"/>
			<path id="Path_17" class="st1" d="M86.9,9.9c0.5,0,0.9-0.4,1-0.8c0.2-1.2-0.2-2.4-0.9-3.3c-0.9-1.2-2.3-1.9-3.9-2
				c-3.2,0-4.8,2.5-4.8,5.6s1.8,5.7,5.1,5.7c1.4,0,2.8-0.7,3.7-1.8c0.8-1,0.7-1.6-0.2-2.1c-0.8-0.4-1.6,0.5-2,0.9
				c-0.4,0.4-0.9,0.6-1.5,0.6c-1.3-0.1-2.3-1.2-2.2-2.5c0-0.1,0-0.2,0-0.3L86.9,9.9z M81.3,8.3c0-1.2,0.9-2.2,2.1-2.2
				c1.2,0,2.2,0.9,2.2,2.1c0,0,0,0.1,0,0.1v0.1h-4.3V8.3z"/>
			<path id="Path_18" class="st1" d="M43.2,3.8c-0.9,0-1.8,1.2-2.3,2.2V5.1c0-0.8-0.7-1.4-1.4-1.3c-0.7,0-1.3,0.6-1.3,1.3v8.6
				c0,0.8,0.6,1.4,1.4,1.4l0,0c0.6,0,1.1-0.3,1.4-0.8V9c0-1.2,1-2.2,2.2-2.2c0,0,0,0,0,0c0.8,0,1.5-0.7,1.5-1.5l0,0
				C44.8,4.5,44.6,3.8,43.2,3.8z"/>
			<path id="Path_19" class="st1" d="M24.2,6.9c0.5-0.3,0.6-1,0.2-1.5c0,0-0.1-0.1-0.1-0.1c-1.1-0.9-2.5-1.4-4-1.4
				c-2-0.1-3.8,1.4-4,3.4c0,0,0,0,0,0.1c0,2.1,1.9,2.6,2.7,2.8s2.3,0.4,3,0.7c0.5,0.1,0.8,0.6,0.7,1c0,0.2-0.1,0.3-0.3,0.5
				c-0.3,0.3-0.7,0.4-1.7,0.4c-0.9,0-1.7-0.4-2.3-1.1c-0.3-0.6-1.1-0.8-1.7-0.4c-0.6,0.3-0.8,1.1-0.4,1.7c0.1,0.1,0.2,0.2,0.3,0.3
				c1,1,2.3,1.6,3.7,1.6c2,0.1,4.1-0.7,4.8-2.4c0.6-1.4-0.1-3.1-1.5-3.7c-0.9-0.4-2.4-0.4-3.4-0.8c-1-0.3-1.4-0.6-1.4-1.2
				s0.5-0.9,1.4-1c0.7,0,1.5,0.2,2,0.7C22.9,7.2,23.6,7.2,24.2,6.9z"/>
		</g>
	</g>
	<g id="Group_5" transform="translate(868.684 62.003)">
		<path id="Path_22" class="st2" d="M7.1,43.5C11,19.5,33.7,3.2,57.7,7.1s40.4,26.6,36.4,50.6S67.6,98,43.5,94.1S3.2,67.6,7.1,43.5
			C7.1,43.5,7.1,43.5,7.1,43.5z"/>
		<g id="Group_4" transform="translate(17.354 12.495)">
			<path id="Path_20" class="st3" d="M68.1,49.2L46.1,4.1c-1.7-3.6-6.1-5.2-9.7-3.5c-3.6,1.7-5.2,6.1-3.5,9.7c0,0,0,0.1,0.1,0.1
				L55,55.6c1.7,3.6,6.1,5.2,9.7,3.5c3.6-1.7,5.2-6.1,3.5-9.7C68.2,49.3,68.2,49.2,68.1,49.2z"/>
			<path id="Path_21" class="st3" d="M41.1,36.8c-1-2.1-3-3.6-5.3-4c-0.4-0.1-0.9-0.1-1.3-0.1h-9.1l5.1-11.1c1.7-3.7,0.1-8-3.5-9.7
				s-8-0.1-9.7,3.5l0,0L0.7,51.2c-1.7,3.7-0.1,8,3.6,9.7c3.6,1.7,8,0.1,9.7-3.5L19,46.5h7.5c3.3,0,4,2,4,2l4,8.3
				c1.8,3.6,6.1,5.1,9.8,3.4c3.6-1.8,5.1-6.1,3.4-9.8L41.1,36.8z"/>
		</g>
	</g>
</g>
</svg>
