<svg width="946" height="286" viewBox="0 0 946 286" fill="none" xmlns="http://www.w3.org/2000/svg">
<g clip-path="url(#clip0_1501_755)">
<path d="M545.79 158.215V133.468H561.987V136.213H548.865V158.215H545.79Z" fill="#001C38"/>
<mask id="mask0_1501_755" style="mask-type:luminance" maskUnits="userSpaceOnUse" x="0" y="0" width="946" height="286">
<path d="M0 1.70787e-06H946V286H0V1.70787e-06Z" fill="white"/>
</mask>
<g mask="url(#mask0_1501_755)">
<path d="M562.168 154.467V140.294H564.948V154.022C564.948 155.32 565.541 156.173 566.69 156.173C566.949 156.173 567.247 156.136 567.395 156.1L567.616 158.511C567.209 158.585 566.653 158.66 566.134 158.66C563.502 158.66 562.168 157.139 562.168 154.467Z" fill="#001C38"/>
<path d="M583.257 153.354V145.228C582.256 143.67 580.106 142.335 577.883 142.335C574.288 142.335 572.138 145.303 572.138 149.273C572.138 153.243 574.288 156.174 577.883 156.174C580.106 156.174 582.256 154.912 583.257 153.354ZM588.668 158.511C588.298 158.585 587.741 158.66 587.223 158.66C584.924 158.66 583.665 157.436 583.368 155.357C582.146 157.213 579.847 158.66 577.216 158.66C572.546 158.66 569.247 155.098 569.247 149.273C569.247 143.559 572.508 139.848 577.216 139.848C579.625 139.848 581.812 141.036 583.22 143.002V140.293H586.037V154.021C586.037 155.321 586.63 156.174 587.741 156.174C588.002 156.174 588.298 156.136 588.483 156.099L588.668 158.511Z" fill="#001C38"/>
<path d="M612.866 158.215V142.743H603.526V158.215H600.746V142.743H597.781V140.294H618.611V142.743H615.646V158.215H612.866Z" fill="#001C38"/>
<path d="M628.096 137.251L628.8 129.831H631.617L629.467 137.251H628.096ZM633.989 153.354V145.228C632.988 143.67 630.838 142.335 628.615 142.335C625.02 142.335 622.87 145.303 622.87 149.273C622.87 153.243 625.02 156.174 628.615 156.174C630.838 156.174 632.988 154.912 633.989 153.354ZM639.4 158.511C639.03 158.585 638.473 158.66 637.954 158.66C635.656 158.66 634.397 157.436 634.1 155.358C632.876 157.213 630.579 158.66 627.948 158.66C623.278 158.66 619.979 155.098 619.979 149.273C619.979 143.559 623.24 139.848 627.948 139.848C630.357 139.848 632.543 141.036 633.951 143.002V140.293H636.769V154.023C636.769 155.321 637.362 156.174 638.473 156.174C638.733 156.174 639.03 156.136 639.215 156.099L639.4 158.511Z" fill="#001C38"/>
<path d="M646.883 158.215L639.434 140.294H642.436L648.515 155.395C651.664 151.054 653.666 145.377 653.666 140.294H656.446C656.446 146.156 653.704 153.131 649.663 158.215H646.883Z" fill="#001C38"/>
<path d="M664.004 154.467V142.743H657.703V140.294H673.122V142.743H666.784V153.874C666.784 155.209 667.376 156.173 668.6 156.173C669.379 156.173 670.119 155.84 670.49 155.432L671.306 157.51C670.602 158.178 669.6 158.66 667.97 158.66C665.338 158.66 664.004 157.139 664.004 154.467Z" fill="#001C38"/>
<path d="M689.093 153.354V145.228C688.092 143.67 685.942 142.335 683.719 142.335C680.124 142.335 677.974 145.303 677.974 149.273C677.974 153.243 680.124 156.174 683.719 156.174C685.942 156.174 688.092 154.912 689.093 153.354ZM694.504 158.511C694.134 158.585 693.577 158.66 693.058 158.66C690.76 158.66 689.501 157.436 689.204 155.357C687.982 157.213 685.683 158.66 683.052 158.66C678.382 158.66 675.083 155.098 675.083 149.273C675.083 143.559 678.344 139.848 683.052 139.848C685.461 139.848 687.648 141.036 689.055 143.002V140.293H691.873V154.021C691.873 155.321 692.466 156.174 693.577 156.174C693.837 156.174 694.134 156.136 694.319 156.099L694.504 158.511Z" fill="#001C38"/>
<path d="M713.254 143.299C709.697 144.375 707.88 146.824 707.88 149.941C707.88 152.908 710.066 156.174 713.884 156.174C717.776 156.174 719.999 152.908 719.999 150.052C719.999 145.6 716.553 144.375 713.254 143.299ZM704.989 149.941C704.989 146.155 707.175 143.485 710.214 142.186C708.436 141.407 707.175 140.293 707.175 138.18C707.175 135.397 709.547 133.021 713.81 133.021C716.886 133.021 719.035 134.172 720.444 135.619L719.147 137.548C718.072 136.25 716.145 135.285 713.81 135.285C711.364 135.285 709.843 136.509 709.843 138.105C709.843 142.186 722.705 139.626 722.705 150.052C722.705 154.43 719.406 158.659 713.958 158.659C708.399 158.659 704.989 154.43 704.989 149.941Z" fill="#001C38"/>
<path d="M727.112 137.251L727.816 129.831H730.633L728.483 137.251H727.112ZM726.482 154.467V140.293H729.262V154.023C729.262 155.321 729.854 156.174 731.004 156.174C731.263 156.174 731.559 156.136 731.708 156.099L731.93 158.511C731.523 158.585 730.967 158.66 730.448 158.66C727.816 158.66 726.482 157.139 726.482 154.467Z" fill="#001C38"/>
<path d="M747.274 158.215V142.743H737.934V158.215H735.154V142.743H732.189V140.294H753.019V142.743H750.054V158.215H747.274Z" fill="#001C38"/>
<path d="M754.424 133.319C754.943 133.133 755.869 133.022 756.462 133.022C758.834 133.06 760.651 134.061 761.726 136.657L770.695 158.215H767.655L761.726 143.522L755.758 158.215H752.757L760.242 140.146L759.057 137.437C758.426 135.916 757.611 135.507 756.389 135.507C755.943 135.507 755.276 135.619 754.868 135.805L754.424 133.319Z" fill="#001C38"/>
<path d="M785.813 153.354V145.228C784.813 143.67 782.663 142.335 780.439 142.335C776.844 142.335 774.694 145.303 774.694 149.273C774.694 153.243 776.844 156.174 780.439 156.174C782.663 156.174 784.813 154.912 785.813 153.354ZM791.225 158.511C790.854 158.585 790.298 158.66 789.779 158.66C787.481 158.66 786.221 157.436 785.924 155.357C784.702 157.213 782.404 158.66 779.772 158.66C775.102 158.66 771.803 155.098 771.803 149.273C771.803 143.559 775.065 139.848 779.772 139.848C782.181 139.848 784.369 141.036 785.776 143.002V140.293H788.593V154.021C788.593 155.321 789.187 156.174 790.298 156.174C790.558 156.174 790.854 156.136 791.039 156.099L791.225 158.511Z" fill="#001C38"/>
<path d="M812.791 142.78H811.049C806.75 142.78 804.6 145.971 804.6 149.236C804.6 152.908 806.75 156.174 810.568 156.174C814.385 156.174 816.497 152.908 816.497 149.458C816.497 146.268 814.94 143.892 812.791 142.78ZM810.568 158.661C805.119 158.661 801.709 154.43 801.709 149.236C801.709 144.301 805.119 140.294 811.049 140.294H820.241V142.78H815.978C817.905 144.301 819.239 146.453 819.239 149.866C819.239 154.653 816.015 158.661 810.568 158.661Z" fill="#001C38"/>
<path d="M836.175 153.354V145.228C835.174 143.67 833.024 142.335 830.8 142.335C827.206 142.335 825.055 145.303 825.055 149.273C825.055 153.243 827.206 156.174 830.8 156.174C833.024 156.174 835.174 154.912 836.175 153.354ZM841.586 158.511C841.215 158.585 840.659 158.66 840.14 158.66C837.842 158.66 836.583 157.436 836.285 155.357C835.063 157.213 832.765 158.66 830.133 158.66C825.463 158.66 822.165 155.098 822.165 149.273C822.165 143.559 825.426 139.848 830.133 139.848C832.542 139.848 834.73 141.036 836.137 143.002V140.293H838.954V154.021C838.954 155.321 839.548 156.174 840.659 156.174C840.919 156.174 841.215 156.136 841.401 156.099L841.586 158.511Z" fill="#001C38"/>
<path d="M843.251 149.236C843.251 143.929 846.846 139.849 852.183 139.849C855.446 139.849 857.372 141.184 858.743 142.965L856.89 144.672C855.704 143.039 854.185 142.335 852.332 142.335C848.513 142.335 846.142 145.266 846.142 149.236C846.142 153.873 849.144 156.174 853.369 156.174C856.631 156.174 858.188 157.138 858.188 159.476C858.188 160.738 857.594 162.222 856.594 164.039H853.702C854.519 162.779 855.408 161.145 855.408 159.996C855.408 158.957 854.629 158.66 853.221 158.66C847.217 158.66 843.251 155.098 843.251 149.236Z" fill="#001C38"/>
<path d="M860.89 156.545C860.89 155.432 861.817 154.504 862.928 154.504C864.041 154.504 864.968 155.432 864.968 156.545C864.968 157.657 864.041 158.585 862.928 158.585C861.817 158.585 860.89 157.657 860.89 156.545Z" fill="#001C38"/>
<path d="M196.219 182.008H201.6V202.494H196.219V182.008ZM195.668 176.579C195.668 174.797 197.15 173.398 198.888 173.398C200.667 173.398 202.108 174.797 202.108 176.579C202.108 178.36 200.667 179.802 198.888 179.802C197.15 179.802 195.668 178.36 195.668 176.579Z" fill="#001C38"/>
<path d="M219.904 202.494V190.109C219.904 187.268 218.42 186.292 216.133 186.292C214.015 186.292 212.362 187.48 211.472 188.71V202.494H206.091V182.008H211.472V184.68C212.786 183.111 215.286 181.499 218.633 181.499C223.124 181.499 225.285 184.044 225.285 188.03V202.494H219.904Z" fill="#001C38"/>
<path d="M228 199.823L230.33 196.047C231.812 197.447 234.864 198.847 237.407 198.847C239.736 198.847 240.839 197.913 240.839 196.641C240.839 193.248 228.678 196.005 228.678 187.945C228.678 184.511 231.686 181.5 237.066 181.5C240.541 181.5 243.296 182.687 245.329 184.299L243.169 187.989C241.939 186.673 239.609 185.612 237.109 185.612C235.16 185.612 233.889 186.503 233.889 187.649C233.889 190.703 246.007 188.158 246.007 196.428C246.007 200.161 242.83 203.003 237.152 203.003C233.592 203.003 230.161 201.815 228 199.823Z" fill="#001C38"/>
<path d="M262.957 202.494V199.908C261.559 201.475 259.101 203.003 255.754 203.003C251.263 203.003 249.145 200.543 249.145 196.556V182.008H254.526V194.436C254.526 197.277 256.009 198.211 258.297 198.211C260.374 198.211 262.025 197.065 262.957 195.878V182.008H268.338V202.494H262.957Z" fill="#001C38"/>
<path d="M272.833 202.494V182.008H278.214V184.807C279.655 182.984 282.197 181.499 284.74 181.499V186.758C284.358 186.674 283.85 186.632 283.256 186.632C281.477 186.632 279.104 187.65 278.214 188.965V202.494H272.833Z" fill="#001C38"/>
<path d="M299.527 197.574V195.029C298.638 193.842 296.944 193.248 295.206 193.248C293.087 193.248 291.351 194.351 291.351 196.344C291.351 198.252 293.087 199.355 295.206 199.355C296.944 199.355 298.638 198.761 299.527 197.574ZM299.527 202.495V200.374C298.129 202.027 295.715 203.003 293.045 203.003C289.783 203.003 285.927 200.799 285.927 196.217C285.927 191.424 289.783 189.6 293.045 189.6C295.756 189.6 298.172 190.492 299.527 192.102V189.346C299.527 187.267 297.748 185.91 295.036 185.91C292.833 185.91 290.8 186.717 289.062 188.327L287.029 184.722C289.528 182.517 292.748 181.5 295.968 181.5C300.629 181.5 304.908 183.365 304.908 189.261V202.495H299.527Z" fill="#001C38"/>
<path d="M323.215 202.494V190.109C323.215 187.268 321.732 186.292 319.445 186.292C317.326 186.292 315.674 187.48 314.784 188.71V202.494H309.403V182.008H314.784V184.68C316.098 183.111 318.598 181.499 321.944 181.499C326.435 181.499 328.596 184.044 328.596 188.03V202.494H323.215Z" fill="#001C38"/>
<path d="M331.778 192.23C331.778 185.953 336.311 181.5 342.625 181.5C346.818 181.5 349.361 183.324 350.717 185.189L347.201 188.497C346.226 187.056 344.743 186.292 342.878 186.292C339.616 186.292 337.328 188.668 337.328 192.23C337.328 195.793 339.616 198.211 342.878 198.211C344.743 198.211 346.226 197.362 347.201 196.005L350.717 199.27C349.361 201.179 346.818 203.003 342.625 203.003C336.311 203.003 331.778 198.55 331.778 192.23Z" fill="#001C38"/>
<path d="M362.668 185.782C359.321 185.782 357.881 188.286 357.626 190.321H367.71C367.583 188.37 366.227 185.782 362.668 185.782ZM352.075 192.231C352.075 186.291 356.44 181.499 362.668 181.499C368.769 181.499 372.921 186.079 372.921 192.781V193.969H357.711C358.05 196.556 360.125 198.719 363.6 198.719C365.337 198.719 367.753 197.956 369.065 196.684L371.438 200.161C369.404 202.028 366.185 203.002 363.007 203.002C356.779 203.002 352.075 198.804 352.075 192.231Z" fill="#001C38"/>
<path d="M194.471 134.36C194.471 119.067 206.022 108.624 220.926 108.624C231.881 108.624 238.216 114.591 241.718 120.783L232.627 125.259C230.54 121.23 226.068 118.023 220.926 118.023C211.909 118.023 205.351 124.961 205.351 134.36C205.351 143.761 211.909 150.698 220.926 150.698C226.068 150.698 230.54 147.565 232.627 143.462L241.718 147.863C238.141 154.056 231.881 160.098 220.926 160.098C206.022 160.098 194.471 149.655 194.471 134.36Z" fill="#001C38"/>
<path d="M285.237 134.36C285.237 125.034 279.274 118.023 270.109 118.023C260.943 118.023 255.055 125.034 255.055 134.36C255.055 143.611 260.943 150.698 270.109 150.698C279.274 150.698 285.237 143.611 285.237 134.36ZM244.174 134.36C244.174 119.366 255.13 108.624 270.109 108.624C285.162 108.624 296.117 119.366 296.117 134.36C296.117 149.354 285.162 160.098 270.109 160.098C255.13 160.098 244.174 149.354 244.174 134.36Z" fill="#001C38"/>
<path d="M298.723 152.19L304.461 144.133C307.964 147.79 313.403 150.848 320.26 150.848C326.071 150.848 328.903 148.162 328.903 145.327C328.903 136.524 300.287 142.567 300.287 123.842C300.287 115.562 307.441 108.698 319.142 108.698C327.041 108.698 333.598 111.086 338.518 115.636L332.63 123.394C328.606 119.664 323.241 117.948 318.173 117.948C313.626 117.948 311.093 119.963 311.093 122.947C311.093 130.855 339.636 125.558 339.636 144.133C339.636 153.234 333.152 160.099 319.738 160.099C310.199 160.099 303.342 156.892 298.723 152.19Z" fill="#001C38"/>
<path d="M388.52 159.203V124.365L374.509 159.203H369.889L355.878 124.365V159.203H345.297V109.443H360.127L372.2 139.509L384.271 109.443H399.176V159.203H388.52Z" fill="#001C38"/>
<path d="M446.197 134.36C446.197 125.034 440.235 118.023 431.069 118.023C421.903 118.023 416.015 125.034 416.015 134.36C416.015 143.611 421.903 150.698 431.069 150.698C440.235 150.698 446.197 143.611 446.197 134.36ZM405.134 134.36C405.134 119.366 416.089 108.624 431.069 108.624C446.122 108.624 457.077 119.366 457.077 134.36C457.077 149.354 446.122 160.098 431.069 160.098C416.089 160.098 405.134 149.354 405.134 134.36Z" fill="#001C38"/>
<path d="M459.683 152.19L465.421 144.133C468.924 147.79 474.363 150.848 481.22 150.848C487.031 150.848 489.863 148.162 489.863 145.327C489.863 136.524 461.247 142.567 461.247 123.842C461.247 115.562 468.402 108.698 480.102 108.698C488.001 108.698 494.558 111.086 499.478 115.636L493.59 123.394C489.566 119.664 484.201 117.948 479.133 117.948C474.586 117.948 472.053 119.963 472.053 122.947C472.053 130.855 500.596 125.558 500.596 144.133C500.596 153.234 494.113 160.099 480.698 160.099C471.159 160.099 464.303 156.892 459.683 152.19Z" fill="#001C38"/>
<path d="M105.748 161.669V109.222L79.5515 135.445L105.748 161.669Z" fill="#001C38"/>
<path d="M131.944 187.894L158.142 161.67H105.748L131.944 187.894Z" fill="#001C38"/>
<path d="M105.748 109.221H158.142L131.944 82.9972L105.748 109.221Z" fill="#001C38"/>
<path d="M158.141 109.221L131.944 135.445L158.141 161.669L184.337 135.445L158.141 109.221Z" fill="#001C38"/>
</g>
</g>
<defs>
<clipPath id="clip0_1501_755">
<rect width="946" height="286" fill="white"/>
</clipPath>
</defs>
</svg>
