<svg viewBox="0 0 743 189" xmlns="http://www.w3.org/2000/svg" fill-rule="evenodd" clip-rule="evenodd"><path d="M229.184 156.437h7.296v-50.009h-7.296v50.009zm20.33-50.009v50.009h6.8v-36.054c0-.709-.026-1.371-.072-1.984a45.429 45.429 0 01-.108-1.841 33.767 33.767 0 00-.175-2.196c.375.47.696.883.954 1.237.259.354.534.7.817 1.03.283.329.587.67.92 1.024.33.355.73.792 1.205 1.313l35.417 37.47h6.941v-50.008h-6.8v36.513c0 .546.021 1.062.071 1.558.046.496.092 1.03.142 1.596.046.567.116 1.3.212 2.196-.616-.754-1.125-1.37-1.525-1.842-.4-.47-.779-.92-1.133-1.346a54.6 54.6 0 00-1.133-1.312c-.4-.446-.909-.98-1.521-1.592l-33.717-35.77h-7.296zm61.27 39.88c.375.52.896 1.204 1.559 2.054.658.85 1.579 1.746 2.762 2.691 1.18.946 2.667 1.867 4.463 2.763 1.791.896 3.966 1.675 6.516 2.337 1.792.471 3.871.838 6.234 1.096 2.358.259 4.579.392 6.658.392 5.192 0 9.654-.63 13.387-1.88 3.73-1.25 6.588-3.266 8.571-6.053 1.084-1.559 1.78-3.084 2.088-4.571.308-1.488.462-2.75.462-3.788 0-2.079-.346-3.862-1.029-5.35-.683-1.487-1.583-2.737-2.692-3.754a14.097 14.097 0 00-3.683-2.442 22.613 22.613 0 00-4.07-1.416 55.2 55.2 0 00-3.226-.604 51.091 51.091 0 00-3.22-.388c-2.267-.237-4.526-.45-6.767-.637-2.242-.188-4.496-.4-6.763-.638-2.362-.237-4.241-.533-5.633-.887-1.392-.355-2.513-1.025-3.363-2.017-.991-1.088-1.487-2.363-1.487-3.825 0-1.038.304-2.138.92-3.296.613-1.154 1.792-2.158 3.542-3.008 1.509-.754 3.388-1.288 5.63-1.596a47.766 47.766 0 016.412-.458c2.738 0 5.43.295 8.07.883 2.647.592 5.105 1.692 7.372 3.296.612.425 1.12.837 1.52 1.237.4.404.863.863 1.384 1.384l6.446-2.621a25.356 25.356 0 00-2.125-2.621c-.709-.754-1.68-1.558-2.904-2.408-2.93-1.984-6.092-3.317-9.492-4.005a52.714 52.714 0 00-10.413-1.025c-.758 0-1.866.034-3.329.105-1.466.07-3.058.25-4.783.533-1.725.283-3.496.72-5.313 1.308a17.544 17.544 0 00-4.958 2.517 12.968 12.968 0 00-3.646 4.108c-.946 1.654-1.416 3.659-1.416 6.021 0 1.18.212 2.513.637 4 .425 1.488 1.392 2.942 2.904 4.358.942.85 1.971 1.534 3.08 2.055 1.108.52 2.445.945 4.004 1.275 1.558.329 3.433.6 5.629.812 2.196.213 4.854.463 7.97.746 2.5.187 4.826.412 6.976.67 2.15.263 4.025.676 5.633 1.242 1.604.567 2.867 1.359 3.787 2.371.921 1.017 1.384 2.4 1.384 4.146 0 3.07-1.454 5.525-4.359 7.367-2.904 1.841-7.116 2.762-12.641 2.762a46.52 46.52 0 01-9.775-1.029 24.6 24.6 0 01-8.925-3.858c-.946-.663-1.667-1.217-2.163-1.667a11.499 11.499 0 01-1.308-1.38l-6.517 2.693zm63.109-39.88v29.396c0 1.417.045 2.867.141 4.354a18.3 18.3 0 00.85 4.43c.471 1.462 1.204 2.891 2.196 4.283.992 1.396 2.363 2.704 4.108 3.933a23.57 23.57 0 008.821 3.825c3.188.659 6.409.992 9.667.992 4.437 0 8.087-.438 10.946-1.313 2.854-.87 5.158-1.875 6.904-3.008 1.937-1.23 3.412-2.562 4.43-4.004 1.012-1.438 1.77-2.904 2.266-4.392.496-1.487.779-2.95.85-4.391.07-1.438.104-2.796.104-4.071v-30.034h-7.154v30.6c0 1.038-.034 2.125-.104 3.259a11.711 11.711 0 01-.709 3.329c-.404 1.087-1.041 2.125-1.912 3.117-.875.991-2.117 1.841-3.721 2.55-1.37.662-3.08 1.191-5.133 1.591-2.055.404-4.288.604-6.696.604-1.984 0-3.73-.116-5.242-.354-1.512-.237-2.82-.533-3.93-.887-1.112-.354-2.032-.73-2.762-1.134a50.34 50.34 0 01-1.808-1.025c-1.087-.708-1.946-1.454-2.583-2.233a8.94 8.94 0 01-1.488-2.62 13.037 13.037 0 01-.708-3.188 38.167 38.167 0 01-.18-3.93v-29.679h-7.153zm99.025 6.021a45.9 45.9 0 012.479.071c.85.046 1.675.188 2.479.425.804.238 1.558.6 2.267 1.096.708.496 1.345 1.196 1.912 2.092a7.81 7.81 0 011.133 2.512c.238.92.355 1.854.355 2.8 0 .896-.117 1.804-.355 2.725-.237.92-.683 1.783-1.345 2.588-.709.945-1.534 1.675-2.48 2.195a11.41 11.41 0 01-2.975 1.134 17.46 17.46 0 01-3.15.425 71.73 71.73 0 01-3.083.07h-24.72V112.45h27.483zm-34.496 43.988h7.083v-19.975h24.154l16.93 19.975h9.279l-18.417-21.109c.85-.141 2.02-.4 3.508-.779s2.975-1.062 4.463-2.054c1.487-.992 2.77-2.383 3.858-4.18 1.088-1.795 1.63-4.178 1.63-7.153 0-1.513-.155-2.846-.459-4.004-.308-1.155-.7-2.171-1.17-3.046-.472-.871-.955-1.617-1.45-2.23-.497-.612-.96-1.087-1.384-1.416-1.088-.992-2.221-1.758-3.4-2.304a17.453 17.453 0 00-3.575-1.204 21.006 21.006 0 00-3.613-.459 90.7 90.7 0 00-3.437-.07h-34v50.008zm100.158-18.134h-24.72l10.554-20.754c.233-.47.445-.92.637-1.346.188-.425.38-.875.567-1.345.141-.38.27-.734.387-1.063.121-.33.225-.662.321-.992.096.33.188.65.283.955.096.308.188.629.284.958.187.425.366.85.529 1.275.167.425.367.85.604 1.275l10.554 21.037zm-41.72 18.134h7.933l6.091-12.325h30.742l6.092 12.325h8.146l-25.642-50.08h-7.508l-25.855 50.08zm66.016-50.009v50.009h6.8v-36.054c0-.709-.025-1.371-.07-1.984a47.33 47.33 0 01-.11-1.841 33.767 33.767 0 00-.174-2.196c.375.47.696.883.954 1.237.258.354.533.7.817 1.03.283.329.587.67.92 1.024.33.355.73.792 1.205 1.313l35.416 37.47h6.942v-50.008h-6.8v36.513c0 .546.02 1.062.07 1.558.047.496.093 1.03.143 1.596.045.567.116 1.3.212 2.196-.617-.754-1.125-1.37-1.525-1.842-.4-.47-.78-.92-1.133-1.346a54.6 54.6 0 00-1.134-1.312c-.4-.446-.908-.98-1.52-1.592l-33.717-35.77h-7.296zm115.242 34.709c-.375.754-.98 1.687-1.804 2.796-.83 1.112-1.9 2.187-3.225 3.225-1.559 1.179-3.634 2.195-6.234 3.045-2.596.85-5.829 1.275-9.704 1.275-4.533-.045-8.287-.675-11.262-1.879-2.975-1.204-5.288-2.7-6.942-4.496-1.933-2.079-3.28-4.345-4.038-6.8a25.193 25.193 0 01-1.133-7.437c0-3.542.638-6.554 1.913-9.033 1.275-2.48 2.975-4.509 5.1-6.092 2.125-1.58 4.57-2.738 7.333-3.471a33.566 33.566 0 018.604-1.096c3.213 0 6.104.38 8.68 1.134 2.57.754 4.616 1.629 6.124 2.62 1.559 1.038 2.717 2.08 3.471 3.117a32.47 32.47 0 011.983 3.046l7.65-1.7a59.642 59.642 0 00-1.237-2.021 24.384 24.384 0 00-1.842-2.48 27.326 27.326 0 00-2.587-2.653 26.554 26.554 0 00-3.471-2.621 25.825 25.825 0 00-5.313-2.48 41.233 41.233 0 00-5.383-1.416c-1.746-.33-3.35-.542-4.817-.637a56.347 56.347 0 00-3.541-.142c-3.209 0-6.009.246-8.392.742-2.387.495-4.417 1.087-6.092 1.77-1.679.688-3.033 1.384-4.075 2.092-1.037.708-1.816 1.275-2.337 1.7-.85.663-1.804 1.513-2.867 2.55-1.062 1.038-2.079 2.35-3.046 3.93-.97 1.583-1.77 3.462-2.408 5.633-.637 2.17-.958 4.745-.958 7.72 0 3.73.625 7.213 1.879 10.446a22.645 22.645 0 005.667 8.43c2.525 2.387 5.687 4.262 9.491 5.633 3.8 1.366 8.25 2.054 13.35 2.054a49.46 49.46 0 004.817-.25 46.03 46.03 0 005.17-.813 38.521 38.521 0 005.21-1.525 25.899 25.899 0 004.92-2.441c1.23-.804 2.292-1.604 3.187-2.409a22.82 22.82 0 002.375-2.445 21.288 21.288 0 001.805-2.513c.52-.85 1.016-1.7 1.487-2.55l-7.508-1.558zm16.646 15.3h47.954v-6.163h-40.871v-16.858h38.038v-5.88h-38.038v-14.945h39.1v-6.163h-46.183v50.009zM229.254 81.44h6.658V50.272c0-1.984-.012-3.58-.033-4.784a94.405 94.405 0 00-.108-3.079 44.7 44.7 0 00-.18-2.337c-.066-.709-.15-1.534-.245-2.48a60.41 60.41 0 001.062 2.73c.33.775.675 1.579 1.03 2.408.354.825.754 1.72 1.204 2.687.445.971 1.025 2.163 1.733 3.58l15.654 32.441h6.517l17.07-35.275c.471-.991.876-1.829 1.205-2.516a48.97 48.97 0 00.887-1.946c.259-.613.517-1.242.78-1.88.258-.637.554-1.45.883-2.441a62.078 62.078 0 00-.321 2.8 75.81 75.81 0 00-.175 2.829 133.439 133.439 0 00-.104 3.825 363.814 363.814 0 00-.038 5.846v28.758h6.659V31.431h-9.634l-15.796 32.796a442.5 442.5 0 01-1.45 3.116c-.404.85-.758 1.663-1.062 2.446-.308.78-.617 1.58-.921 2.404-.308.83-.675 1.834-1.1 3.013-.47-1.18-.875-2.183-1.204-3.013-.33-.825-.65-1.616-.954-2.37a85.063 85.063 0 00-1.063-2.48 91.338 91.338 0 00-1.596-3.329L239.03 31.431h-9.775v50.008zm71.754 0h7.296V31.43h-7.296v50.01zm20.33-50.01v50.01h6.8V45.384c0-.708-.026-1.37-.071-1.983a45.59 45.59 0 01-.109-1.842 33.767 33.767 0 00-.175-2.196c.375.471.696.888.954 1.238.259.358.534.7.817 1.029.283.329.588.67.92 1.029.33.35.73.788 1.205 1.308l35.417 37.471h6.941V31.431h-6.8v36.517c0 .541.021 1.058.071 1.554.046.5.092 1.029.142 1.596.046.566.117 1.3.212 2.195-.616-.754-1.125-1.37-1.525-1.841-.4-.471-.779-.921-1.133-1.346a54.6 54.6 0 00-1.133-1.313c-.4-.445-.909-.979-1.521-1.591L328.633 31.43h-7.296zm65.941 50.01h47.954v-6.163h-40.87V58.418H432.4V52.54h-38.038V37.593h39.1v-6.162H387.28v50.008zm91.588-43.988c.804 0 1.629.025 2.479.07.85.046 1.675.188 2.479.426.804.237 1.558.6 2.267 1.1.708.495 1.346 1.191 1.912 2.087a7.85 7.85 0 011.134 2.513 10.936 10.936 0 010 5.529c-.238.916-.684 1.779-1.346 2.583-.709.946-1.534 1.675-2.48 2.196-.945.52-1.937.896-2.974 1.133a17.46 17.46 0 01-3.15.425 71.73 71.73 0 01-3.084.071h-24.72V37.452h27.483zM444.37 81.439h7.083V61.464h24.154l16.93 19.975h9.279L483.4 60.331c.85-.142 2.02-.4 3.508-.78 1.488-.378 2.975-1.062 4.463-2.053 1.487-.992 2.77-2.384 3.858-4.18 1.088-1.795 1.63-4.179 1.63-7.154 0-1.512-.155-2.846-.459-4-.308-1.158-.7-2.175-1.17-3.05-.472-.87-.955-1.616-1.45-2.229-.497-.612-.96-1.087-1.384-1.417-1.088-.991-2.221-1.758-3.4-2.3a16.964 16.964 0 00-3.575-1.204 20.612 20.612 0 00-3.613-.462 90.7 90.7 0 00-3.437-.071h-34v50.008zm87.904-12.254c-.283.613-.52 1.12-.708 1.52-.188.405-.342.793-.463 1.172-.116.379-.22.779-.316 1.204-.096.425-.213.946-.355 1.558a29.327 29.327 0 00-1.029-3.187 25.1 25.1 0 00-.566-1.346 51.927 51.927 0 00-.813-1.7L510.6 31.43h-7.862l24.012 50.008h7.154l23.588-50.008H549.7l-17.425 37.754zm67.858-5.88h-24.72l10.554-20.753c.233-.471.446-.921.637-1.346.188-.425.375-.875.567-1.346.142-.38.27-.733.387-1.062.117-.33.225-.663.321-.992.092.329.188.65.284.954l.283.958c.187.425.362.85.53 1.275.166.425.366.85.603 1.275l10.554 21.038zm-41.72 18.134h7.933l6.092-12.325h30.741l6.092 12.325h8.146L591.775 31.36h-7.508l-25.854 50.08z" fill="#082240" fill-rule="nonzero"/><path fill="#082240" d="M.763.949h187.263v187.263H.763z"/><path d="M81.097 74.08v65.4M134.522 74v65.4M54.265 74.08v65.4m53.67-65.4v65.4m5.915-83.78H48.239" fill="none" stroke="#fff" stroke-width="12.042"/><path fill="#fff" d="M128.559 49.729h11.992V61.72h-11.992z"/></svg>