<svg xmlns="http://www.w3.org/2000/svg" xmlns:xlink="http://www.w3.org/1999/xlink" viewBox="0 0 210 74" fill="none">
<defs><defs><linearGradient id="paint0_linear_38_3656" x1="55" y1="0" x2="55" y2="72" gradientUnits="userSpaceOnUse"><stop stop-color="#82151A"></stop><stop offset="0.461806" stop-color="#F1641F"></stop><stop offset="1" stop-color="#FFC408"></stop></linearGradient></defs><g id="trustart"><path fill-rule="evenodd" clip-rule="evenodd" d="M19 3.625V7.25H35.1891H51.3781V39.625V72H55.1141H58.85V39.625V7.25H74.9145H90.9791V3.625V0H54.9895H19V3.625ZM19 12.625V14.5H31.5777H44.1553V43.25V72H46.0233H47.8913V41.375V10.75H33.4456H19V12.625ZM62.0878 41.375V72H64.0803H66.0728V43.25V14.5H78.5259H90.9791V12.625V10.75H76.5334H62.0878V41.375ZM19 19.875V21.75H27.9663H36.9325V46.875V72H38.925H40.9175V45V18H29.9588H19V19.875ZM69.3106 45V72H71.1786H73.0466V46.875V21.75H82.0128H90.9791V19.875V18H80.1449H69.3106V45ZM19.1054 25.335C19.0334 25.5235 19.0082 26.397 19.0496 27.2763L19.1245 28.875L24.4171 28.9425L29.7097 29.01V50.505V72H31.7034H33.6972L33.6337 48.5625L33.5702 25.125L26.4034 25.0588C20.5178 25.0042 19.2129 25.0535 19.1054 25.335ZM76.5334 48.4963V72H78.4014H80.2694V50.5V29H85.6347H91L90.9273 27.0625L90.8545 25.125L83.694 25.0588L76.5334 24.9923V48.4963ZM19 34.375V36.25H20.7434H22.4869V54.125V72H24.4794H26.4719V52.25V32.5H22.7359H19V34.375ZM83.7563 52.25V72H85.6242H87.4922V54.125V36.25H89.2356H90.9791V34.375V32.5H87.3677H83.7563V52.25Z" fill="url(#paint0_linear_38_3656)"></path><path d="M37.0819 137.995C36.5658 137.995 36.0754 137.912 35.616 137.747C35.1566 137.582 34.7488 137.349 34.3978 137.055C34.0468 136.761 33.7681 136.41 33.5616 135.992C33.3552 135.584 33.252 135.135 33.252 134.645C33.252 134.144 33.3552 133.69 33.5616 133.277C33.7681 132.869 34.0417 132.513 34.3927 132.219C34.7385 131.919 35.1463 131.692 35.6109 131.532C36.0754 131.372 36.5606 131.29 37.0819 131.29C37.4484 131.29 37.7942 131.315 38.1401 131.372C38.4756 131.424 38.8008 131.512 39.1053 131.615V132.637C38.9711 132.332 38.744 132.11 38.4137 131.971C38.0833 131.826 37.722 131.759 37.3246 131.759C36.9323 131.759 36.5606 131.837 36.2199 131.986C35.8793 132.136 35.5799 132.343 35.3218 132.606C35.0689 132.874 34.8676 133.179 34.723 133.525C34.5837 133.876 34.5114 134.247 34.5114 134.655C34.5114 135.042 34.5837 135.414 34.7282 135.77C34.8727 136.116 35.0792 136.425 35.3321 136.689C35.5902 136.952 35.8896 137.158 36.2302 137.313C36.5709 137.463 36.9374 137.535 37.3246 137.535C37.7633 137.535 38.1401 137.468 38.4498 137.334C38.7647 137.2 38.9814 136.983 39.1053 136.689V137.685C38.4807 137.886 37.8149 137.995 37.0819 137.995Z" fill="#434343"></path><path d="M45.2265 134.841V137.385C45.2265 137.597 45.3142 137.747 45.4846 137.85H43.8948C44.0599 137.742 44.1425 137.587 44.1425 137.385V135.171L41.4688 131.424H42.274C42.4546 131.424 42.6043 131.455 42.7385 131.522C42.8676 131.594 42.9811 131.697 43.074 131.831L44.891 134.371L46.6976 131.821C46.7337 131.775 46.7595 131.728 46.775 131.692C46.7905 131.651 46.8008 131.604 46.8008 131.553C46.8008 131.506 46.7853 131.46 46.7595 131.418H47.6525" fill="#434343"></path><path d="M54.5748 134.139C54.4612 134.377 54.2909 134.583 54.069 134.753C53.847 134.924 53.5786 135.063 53.2534 135.161C52.9282 135.259 52.5669 135.316 52.1643 135.316H51.39V137.391C51.39 137.597 51.4778 137.747 51.643 137.861H50.0635C50.2287 137.752 50.3164 137.597 50.3164 137.391V131.889C50.3164 131.687 50.2338 131.538 50.0635 131.429H52.1694C52.5617 131.429 52.9179 131.476 53.2327 131.569C53.5476 131.667 53.8212 131.801 54.0483 131.966C54.2754 132.136 54.4458 132.348 54.5696 132.591C54.6935 132.833 54.7555 133.096 54.7555 133.385C54.7503 133.654 54.6935 133.902 54.5748 134.139ZM53.4238 132.771C53.3463 132.596 53.2431 132.436 53.1089 132.307C52.9747 132.172 52.8147 132.074 52.6288 131.997C52.443 131.92 52.2314 131.883 52.0094 131.883H51.39V134.841H52.1333C52.3243 134.841 52.5101 134.805 52.6856 134.733C52.8559 134.66 53.0005 134.562 53.1295 134.433C53.2534 134.304 53.3567 134.149 53.4238 133.964C53.5012 133.783 53.5321 133.582 53.5321 133.349C53.5373 133.143 53.5012 132.952 53.4238 132.771Z" fill="#434343"></path><path d="M62.586 137.85C62.3382 137.85 62.1266 137.799 61.9408 137.695C61.7601 137.592 61.6001 137.448 61.4607 137.267L59.3806 134.464H59.8503C60.0206 134.464 60.1909 134.428 60.3458 134.361C60.5058 134.294 60.6348 134.201 60.7536 134.082C60.8671 133.963 60.9549 133.834 61.022 133.674C61.0891 133.514 61.12 133.349 61.12 133.168C61.12 132.993 61.0891 132.828 61.0323 132.673C60.9755 132.513 60.8878 132.379 60.7845 132.26C60.6761 132.146 60.5522 132.048 60.4026 131.981C60.2529 131.919 60.0929 131.883 59.9225 131.883H58.7044V137.386C58.7044 137.587 58.787 137.742 58.9573 137.85H57.3623C57.5378 137.747 57.6204 137.597 57.6204 137.386V131.883C57.6204 131.677 57.5378 131.522 57.3623 131.424H60.16C60.4748 131.424 60.7587 131.465 61.022 131.553C61.2852 131.641 61.5175 131.765 61.7137 131.919C61.9098 132.074 62.0646 132.25 62.1782 132.456C62.2917 132.663 62.3485 132.885 62.3485 133.112C62.3485 133.303 62.3124 133.483 62.235 133.654C62.1575 133.819 62.0543 133.979 61.9149 134.118C61.7859 134.263 61.6311 134.387 61.4452 134.485C61.2646 134.583 61.0684 134.665 60.8516 134.712L63.1796 137.85" fill="#434343"></path><path d="M70.6123 131.889V135.848C70.6123 136.142 70.5452 136.421 70.4058 136.689C70.2665 136.952 70.0755 137.179 69.8329 137.375C69.5955 137.566 69.3116 137.721 68.9864 137.835C68.6663 137.948 68.3257 138 67.9592 138C67.5927 138 67.252 137.948 66.932 137.835C66.612 137.721 66.3281 137.566 66.0855 137.375C65.8429 137.179 65.6571 136.952 65.5177 136.689C65.3732 136.421 65.3061 136.142 65.3061 135.848V131.889C65.3061 131.687 65.2235 131.532 65.0635 131.429H66.6533C66.4829 131.532 66.3952 131.687 66.3952 131.889V135.796C66.3952 136.018 66.4417 136.23 66.5449 136.421C66.6378 136.612 66.772 136.782 66.9372 136.926C67.1075 137.071 67.2985 137.179 67.5205 137.267C67.7424 137.35 67.9798 137.391 68.2327 137.391C68.4805 137.391 68.7231 137.345 68.9502 137.267C69.1773 137.179 69.3683 137.071 69.5335 136.926C69.6987 136.777 69.8329 136.612 69.931 136.421C70.0342 136.23 70.0755 136.018 70.0755 135.796V131.889C70.0755 131.687 69.9929 131.532 69.8277 131.429H70.8704C70.7001 131.532 70.6123 131.687 70.6123 131.889Z" fill="#434343"></path><path d="M77.3585 136.932C77.2552 137.143 77.1055 137.329 76.9042 137.484C76.7081 137.639 76.4603 137.768 76.1661 137.861C75.8719 137.954 75.5312 138 75.1441 138C74.9531 138 74.7363 137.985 74.4988 137.948C74.2614 137.917 74.0395 137.871 73.8433 137.809V136.823C73.962 137.081 74.1324 137.272 74.3595 137.381C74.5815 137.494 74.8344 137.546 75.1234 137.546C75.5518 137.546 75.8874 137.443 76.1248 137.231C76.3726 137.019 76.4964 136.741 76.4964 136.41C76.4964 136.126 76.3829 135.868 76.1558 135.651C75.9286 135.424 75.5931 135.182 75.1544 134.924C74.9273 134.795 74.7208 134.66 74.5298 134.526C74.344 134.387 74.1788 134.242 74.0446 134.082C73.9156 133.922 73.8072 133.752 73.7298 133.566C73.6523 133.385 73.6162 133.189 73.6162 132.972C73.6162 132.678 73.673 132.425 73.7865 132.219C73.9001 132.012 74.055 131.832 74.2614 131.698C74.4679 131.558 74.7053 131.46 74.984 131.393C75.2628 131.326 75.5673 131.295 75.8925 131.295C76.1093 131.295 76.3209 131.31 76.5481 131.357C76.7649 131.403 76.961 131.455 77.1313 131.522V132.415C77.0333 132.234 76.8836 132.08 76.6719 131.95C76.4655 131.816 76.1919 131.754 75.8512 131.754C75.4538 131.754 75.1337 131.842 74.9015 132.012C74.6692 132.178 74.5505 132.41 74.5505 132.689C74.5505 132.833 74.5866 132.962 74.6589 133.081C74.726 133.2 74.8189 133.313 74.9376 133.422C75.0563 133.525 75.1957 133.633 75.3505 133.731C75.5054 133.829 75.6602 133.927 75.8202 134.025C76.1041 134.196 76.3468 134.366 76.5532 134.521C76.7649 134.681 76.9403 134.851 77.0849 135.022C77.2294 135.192 77.3326 135.388 77.4101 135.589C77.4823 135.791 77.5185 136.018 77.5185 136.271C77.5133 136.498 77.4617 136.72 77.3585 136.932Z" fill="#434343"></path><path d="M9.41473 114.37H7.03516C7.28808 114.524 7.42228 114.752 7.42228 115.061V123.284C7.42228 123.599 7.28808 123.831 7.03516 123.991H9.41473C9.16697 123.826 9.0379 123.588 9.0379 123.284V115.061C9.0379 114.762 9.1618 114.53 9.41473 114.37Z" fill="#434343"></path><path d="M21.8496 115.051V121.379L14.9277 114.364H13.2656C13.5134 114.529 13.6373 114.762 13.6373 115.051V123.284C13.6373 123.588 13.5134 123.815 13.2656 123.981H14.8245C14.5819 123.815 14.458 123.588 14.458 123.284V116.104L22.6754 124.461V115.056C22.6754 114.767 22.7993 114.529 23.0471 114.369H21.4882C21.7308 114.529 21.8496 114.762 21.8496 115.051Z" fill="#434343"></path><path d="M90.3453 124.192C89.5711 124.192 88.8381 124.068 88.1464 123.82C87.4599 123.573 86.8508 123.227 86.3243 122.783C85.7978 122.344 85.3849 121.813 85.07 121.203C84.7603 120.589 84.6055 119.908 84.6055 119.175C84.6055 118.432 84.7603 117.75 85.07 117.136C85.3797 116.517 85.7927 115.985 86.314 115.546C86.8302 115.107 87.4496 114.772 88.1412 114.524C88.8329 114.276 89.5711 114.158 90.3402 114.158C90.8873 114.158 91.4138 114.199 91.9196 114.276C92.4255 114.359 92.9055 114.483 93.3597 114.638V116.171C93.1636 115.717 92.8178 115.386 92.3326 115.169C91.837 114.953 91.295 114.844 90.7014 114.844C90.1079 114.844 89.5504 114.958 89.0446 115.18C88.5335 115.402 88.0793 115.717 87.7025 116.114C87.3257 116.506 87.0263 116.966 86.8095 117.487C86.5979 118.008 86.4895 118.571 86.4895 119.17C86.4895 119.748 86.603 120.316 86.8198 120.832C87.0366 121.358 87.336 121.818 87.718 122.215C88.0999 122.607 88.5439 122.922 89.0549 123.144C89.5659 123.371 90.113 123.485 90.7014 123.485C91.357 123.485 91.9196 123.377 92.3842 123.175C92.8539 122.974 93.1791 122.659 93.3649 122.215V123.707C92.4461 124.032 91.4396 124.192 90.3453 124.192Z" fill="#434343"></path><path d="M44.169 115.051V120.982C44.169 121.425 44.0658 121.844 43.8542 122.231C43.6425 122.628 43.3638 122.974 43.0025 123.263C42.636 123.547 42.2179 123.779 41.7327 123.955C41.2578 124.12 40.7416 124.202 40.1997 124.202C39.6474 124.202 39.1415 124.12 38.6563 123.955C38.1763 123.779 37.753 123.547 37.3917 123.263C37.0304 122.974 36.7413 122.633 36.54 122.231C36.3336 121.844 36.2252 121.42 36.2252 120.982V115.051C36.2252 114.767 36.1013 114.529 35.8535 114.364H38.2382C37.9853 114.529 37.8563 114.767 37.8563 115.051V120.909C37.8563 121.24 37.9337 121.549 38.073 121.838C38.2124 122.127 38.4137 122.38 38.6615 122.602C38.9092 122.819 39.2035 122.989 39.5338 123.108C39.8693 123.232 40.2203 123.294 40.5971 123.294C40.9739 123.294 41.3353 123.237 41.6708 123.108C42.0114 122.989 42.3005 122.814 42.5483 122.602C42.8012 122.38 42.9973 122.127 43.1367 121.838C43.2812 121.549 43.3483 121.245 43.3483 120.909V115.051C43.3483 114.767 43.2296 114.529 42.9818 114.364H44.5407C44.2878 114.529 44.169 114.767 44.169 115.051Z" fill="#434343"></path><path d="M32.1782 122.587C32.0233 122.902 31.8014 123.18 31.502 123.408C31.2026 123.64 30.8309 123.831 30.3974 123.975C29.9535 124.12 29.4528 124.187 28.8695 124.187C28.5805 124.187 28.2553 124.161 27.8991 124.11C27.543 124.063 27.2074 123.991 26.9132 123.903V122.422C27.0887 122.819 27.3468 123.098 27.6875 123.258C28.023 123.423 28.3998 123.506 28.8282 123.506C29.4683 123.506 29.9689 123.351 30.3303 123.031C30.6967 122.716 30.8774 122.308 30.8774 121.797C30.8774 121.374 30.7071 121.002 30.3716 120.656C30.036 120.321 29.5302 119.96 28.8747 119.578C28.5391 119.392 28.2243 119.18 27.9404 118.979C27.6565 118.767 27.4087 118.55 27.2126 118.313C27.0165 118.076 26.8616 117.817 26.7429 117.544C26.6293 117.275 26.5674 116.981 26.5674 116.656C26.5674 116.217 26.6551 115.841 26.8203 115.526C26.9906 115.216 27.2281 114.953 27.5326 114.746C27.8372 114.545 28.1985 114.39 28.6217 114.297C29.0347 114.199 29.4889 114.147 29.9741 114.147C30.2941 114.147 30.6142 114.178 30.9497 114.246C31.28 114.307 31.5742 114.39 31.8272 114.493V115.835C31.6826 115.557 31.4504 115.324 31.1458 115.139C30.8361 114.942 30.4232 114.844 29.9173 114.844C29.3186 114.844 28.8437 114.973 28.4927 115.226C28.1469 115.474 27.9765 115.815 27.9765 116.238C27.9765 116.455 28.023 116.651 28.1262 116.832C28.2295 117.007 28.374 117.177 28.5546 117.337C28.7301 117.497 28.9366 117.657 29.1637 117.802C29.396 117.946 29.6231 118.096 29.8709 118.241C30.2838 118.494 30.6503 118.752 30.9652 118.989C31.28 119.227 31.5433 119.48 31.7601 119.743C31.9717 120.001 32.1369 120.285 32.2453 120.594C32.3537 120.889 32.4104 121.235 32.4104 121.611C32.4156 121.942 32.3382 122.267 32.1782 122.587Z" fill="#434343"></path><path d="M102.373 123.248H99.1309V119.376H101.794C102.073 119.376 102.274 119.485 102.404 119.722V118.303C102.274 118.52 102.073 118.628 101.794 118.628H99.1309V115.097H101.985C102.336 115.097 102.62 115.164 102.837 115.293C103.054 115.422 103.214 115.603 103.312 115.835V114.354H97.0869C97.216 114.447 97.3192 114.555 97.3966 114.664C97.4792 114.772 97.5205 114.906 97.5205 115.061V123.991H103.725V122.566C103.451 123.026 102.997 123.248 102.373 123.248Z" fill="#434343"></path><path d="M79.9648 115.051V121.384L73.0481 114.364H71.3809C71.6286 114.529 71.7577 114.767 71.7577 115.051V123.284C71.7577 123.588 71.6338 123.82 71.3809 123.991H72.9448C72.7022 123.826 72.5784 123.593 72.5784 123.284V116.104L80.7906 124.461V115.056C80.7906 114.772 80.9094 114.535 81.1623 114.369H79.5983C79.8461 114.529 79.9648 114.767 79.9648 115.051Z" fill="#434343"></path><path d="M55.86 123.986C55.4936 123.986 55.1735 123.908 54.9 123.754C54.6316 123.594 54.389 123.387 54.1773 123.108L51.0648 118.922H51.7668C52.0301 118.922 52.2727 118.871 52.5101 118.773C52.7424 118.669 52.9437 118.535 53.1088 118.354C53.2843 118.179 53.4134 117.978 53.5166 117.745C53.6147 117.508 53.6611 117.265 53.6611 116.992C53.6611 116.723 53.6147 116.476 53.5269 116.238C53.434 116.006 53.3153 115.799 53.1501 115.629C52.9901 115.448 52.8043 115.319 52.5824 115.211C52.3707 115.113 52.123 115.066 51.8649 115.066H50.0428V123.289C50.0428 123.594 50.1718 123.831 50.4196 123.991H48.04C48.2981 123.836 48.422 123.599 48.422 123.289V115.061C48.422 114.757 48.293 114.524 48.04 114.37H52.221C52.6856 114.37 53.1192 114.442 53.5166 114.571C53.9141 114.7 54.2599 114.886 54.5541 115.113C54.8483 115.34 55.0806 115.608 55.2406 115.918C55.4161 116.228 55.4936 116.553 55.4936 116.904C55.4936 117.193 55.4368 117.456 55.3284 117.709C55.2097 117.962 55.0548 118.2 54.8587 118.401C54.6574 118.618 54.4199 118.798 54.1515 118.953C53.8779 119.108 53.5837 119.216 53.2637 119.289L56.7427 123.991" fill="#434343"></path><path d="M67.1485 123.96C66.9214 123.96 66.7046 123.903 66.493 123.779C66.2865 123.65 66.1317 123.485 66.0336 123.268L65.1096 121.204H61.1867L60.1183 123.573C60.1028 123.63 60.0925 123.671 60.0925 123.712C60.0925 123.81 60.1337 123.893 60.2112 123.96H58.9053C58.9879 123.893 59.0653 123.831 59.1169 123.779C59.1737 123.717 59.2201 123.64 59.2563 123.547L63.6024 113.9L68.1034 123.96H67.1485ZM63.1637 116.847L61.5119 120.517H64.7999L63.1637 116.847Z" fill="#434343"></path><path d="M0 90.6929C0.325188 89.8619 0.846514 89.2218 1.57432 88.7728C2.29695 88.3289 3.23637 88.0966 4.39259 88.0966H8.39808V108.305C8.39808 109.347 7.98516 110.178 7.15929 110.793H14.1998C13.3688 110.178 12.9559 109.347 12.9559 108.305V88.0966H17.0181C18.1744 88.0966 19.1138 88.3237 19.8364 88.7728C20.5591 89.227 21.0804 89.867 21.4056 90.6929V86.0835H0" fill="#434343"></path><path d="M42.0833 96.355C42.8937 95.2556 43.2911 94.0219 43.2911 92.6438C43.2911 90.7649 42.5788 89.206 41.1542 87.9569C39.7295 86.7129 37.861 86.0884 35.5537 86.0884H23.9192C24.5283 86.6304 24.838 87.3891 24.838 88.3647V108.516C24.838 109.058 24.7451 109.497 24.5644 109.843C24.3838 110.183 24.0947 110.503 23.6973 110.787H30.4643C30.0616 110.503 29.7726 110.183 29.5868 109.843C29.4061 109.497 29.3132 109.058 29.3132 108.516V88.0344H34.2478C35.5124 88.0344 36.5189 88.535 37.2622 89.5261C38.0055 90.5171 38.372 91.725 38.372 93.129C38.372 93.7793 38.2739 94.3987 38.0726 95.0027C37.8765 95.5963 37.5977 96.1382 37.2313 96.6234C36.8699 97.1138 36.4209 97.5009 35.8789 97.79C35.3369 98.079 34.702 98.2236 33.9846 98.2236H33.009L39.3682 107.324C40.127 108.439 41.02 109.301 42.0471 109.894C43.0743 110.493 44.277 110.787 45.65 110.787H47.3844L38.7178 98.6572C40.1528 98.2236 41.2729 97.4596 42.0833 96.355Z" fill="#434343"></path><path d="M66.4411 88.6383V102.234C66.4411 103.21 66.2656 104.123 65.9197 104.97C65.5791 105.822 65.0887 106.57 64.459 107.22C63.8241 107.871 63.0808 108.377 62.2291 108.733C61.3775 109.099 60.4638 109.275 59.4831 109.275C58.5075 109.275 57.6042 109.099 56.768 108.733C55.937 108.371 55.2144 107.871 54.6001 107.22C53.9859 106.57 53.5058 105.822 53.16 104.97C52.8193 104.123 52.6438 103.21 52.6438 102.234V88.6383C52.6438 87.5904 53.0826 86.7439 53.9601 86.0884H46.8008C47.6679 86.7439 48.1015 87.5853 48.1015 88.6383V102.389C48.1015 103.654 48.3545 104.846 48.8603 105.966C49.3661 107.086 50.0888 108.057 51.0334 108.893C51.9677 109.724 53.0981 110.379 54.4195 110.865C55.7409 111.355 57.212 111.598 58.8431 111.598C60.3296 111.598 61.6717 111.355 62.8847 110.865C64.0977 110.379 65.1248 109.714 65.9765 108.862C66.823 108.01 67.4889 107.035 67.9535 105.909C68.4283 104.789 68.6554 103.602 68.6554 102.337V88.6383C68.6554 87.5853 69.089 86.7439 69.9614 86.0884H65.1868C66.023 86.7129 66.4411 87.5543 66.4411 88.6383Z" fill="#434343"></path><path d="M85.3076 98.9412C84.6933 98.2908 83.9655 97.7127 83.119 97.212C82.2725 96.7061 81.364 96.2364 80.3833 95.8028C79.8465 95.5499 79.2994 95.297 78.7625 95.0389C78.2257 94.7912 77.7353 94.4918 77.3018 94.1459C76.8682 93.8001 76.5172 93.3768 76.2488 92.871C75.9752 92.3651 75.841 91.7354 75.841 90.9767C75.841 89.8927 76.3107 89.0049 77.2502 88.3235C78.1844 87.637 79.3407 87.2964 80.7085 87.2964C82.1125 87.2964 83.2326 87.6473 84.0636 88.3545C84.8895 89.0617 85.5398 89.9908 86.0096 91.1418V86.4808C85.1785 86.1504 84.332 85.8872 83.4648 85.6704C82.6028 85.4588 81.7305 85.3452 80.8685 85.3452C79.4955 85.3452 78.2515 85.5207 77.1314 85.8614C76.0165 86.2021 75.0668 86.6718 74.2873 87.2654C73.5131 87.8641 72.9092 88.561 72.4756 89.3559C72.0472 90.1456 71.8252 90.9767 71.8252 91.8438C71.8252 93.6504 72.2949 95.2041 73.2343 96.5048C74.1738 97.8056 75.7223 98.8173 77.885 99.5399C78.969 99.9012 79.8413 100.304 80.5124 100.758C81.1782 101.207 81.7047 101.677 82.0867 102.167C82.4635 102.658 82.7216 103.169 82.8713 103.711C83.0158 104.258 83.0881 104.795 83.0881 105.337C83.0881 106.818 82.5822 107.907 81.5757 108.614C80.564 109.321 79.3768 109.667 78.0038 109.667C76.6359 109.667 75.4642 109.342 74.4887 108.692C73.5183 108.041 72.8317 107.03 72.4343 105.657V110.529C73.0898 110.777 73.8538 111.014 74.7416 111.231C75.6242 111.443 76.5688 111.556 77.5805 111.556C78.9535 111.556 80.2336 111.386 81.426 111.045C82.6184 110.7 83.6455 110.204 84.5127 109.548C85.3799 108.903 86.0664 108.124 86.5722 107.221C87.0781 106.317 87.3258 105.326 87.3258 104.237C87.3258 103.081 87.14 102.074 86.789 101.207C86.407 100.355 85.9167 99.5967 85.3076 98.9412Z" fill="#434343"></path><path d="M89.3594 86.0884V90.6926C89.6846 89.8616 90.211 89.2267 90.9337 88.7725C91.6563 88.3234 92.6009 88.0963 93.752 88.0963H97.7627V108.304C97.7627 109.347 97.3497 110.178 96.5135 110.792H103.559C102.723 110.183 102.31 109.352 102.31 108.304V88.0963H106.372C107.529 88.0963 108.468 88.3234 109.191 88.7776C109.908 89.2319 110.429 89.8667 110.755 90.6978V86.0884" fill="#434343"></path></g></defs>
<svg x="0" y="2" width="79" height="70" viewBox="6 4 86 76" preserveAspectRatio="xMidYMid meet" overflow="hidden"><use xlink:href="#trustart" href="#trustart"/></svg>
<svg x="90" y="9" width="118" height="56" viewBox="4 84 94 56" preserveAspectRatio="xMidYMid meet" overflow="hidden"><use xlink:href="#trustart" href="#trustart"/></svg>
</svg>