<svg width="64" height="64" viewBox="0 0 64 64" xmlns="http://www.w3.org/2000/svg">
  <defs>
    <linearGradient id="g" x1="0" y1="0" x2="1" y2="1">
      <stop offset="0" stop-color="#3b82f6"/>
      <stop offset="1" stop-color="#1546e0"/>
    </linearGradient>
  </defs>
  <rect width="64" height="64" rx="16" fill="url(#g)"/>
  <svg x="13" y="14" width="38" height="38" viewBox="0 0 24 24" fill="none" stroke="#fff" stroke-width="2" stroke-linecap="round" stroke-linejoin="round">
    <path d="M5 16 3 11l1.6-4a2 2 0 0 1 1.9-1.3h11a2 2 0 0 1 1.9 1.3L21 11l-2 5M5 16h14M5 16v2a1 1 0 0 0 1 1h1a1 1 0 0 0 1-1v-2m8 0v2a1 1 0 0 0 1 1h1a1 1 0 0 0 1-1v-2M7 11h10" />
  </svg>
</svg>
